<svg id="Layer_1" data-name="Layer 1" xmlns="http://www.w3.org/2000/svg" viewBox="0 0 200 135.85"><defs><style>.cls-1{fill:#009245;}.cls-2{fill:#0071bc;}.cls-3{fill:#2e3192;}.cls-4{fill:#ff0;}</style></defs><title>BlueSlime</title><path class="cls-1" d="M112.53,132.08c0-4.41,1.45-8.14,3.41-9.32a7.89,7.89,0,0,0-2.37-.38c-4.69,0-8.5,4.33-8.5,9.7s3.81,9.69,8.5,9.69a7.59,7.59,0,0,0,2.37-.38C114,140.22,112.53,136.49,112.53,132.08Z" transform="translate(0 -64.15)"/><path class="cls-2" d="M147.26,104.52C139,83,98.73,68.6,52.21,65,38.27,69.33,35.52,90.27,24.7,110.13c-12.25,22.47-20.42,14.3-24.51,48S58.39,200,58.39,200h70.48s42.9-12.26,48-33.72S156.43,128.51,147.26,104.52ZM34.92,141.77c-2.62,0-4.74-4.33-4.74-9.69s2.12-9.7,4.74-9.7,4.73,4.33,4.73,9.7S37.53,141.77,34.92,141.77Zm87-8.87c-.19,5-2.21,8.87-4.69,8.87a2.61,2.61,0,0,1-1.33-.38,7.59,7.59,0,0,1-2.37.38c-4.69,0-8.5-4.33-8.5-9.69s3.81-9.7,8.5-9.7a7.89,7.89,0,0,1,2.37.38,2.71,2.71,0,0,1,1.33-.38c2.48,0,4.5,3.9,4.69,8.88,0,.27,0,.55,0,.82S122,132.62,122,132.9Z" transform="translate(0 -64.15)"/><path class="cls-3" d="M199.33,166.28c-5.09,21.46-48,33.72-48,33.72H128.87s42.9-12.26,48-33.72-20.43-37.77-29.6-61.76C139,83,98.73,68.6,52.21,65a18.17,18.17,0,0,1,6.18-.84c53.11,1.22,102.13,16.34,111.33,40.36S204.45,144.85,199.33,166.28Z" transform="translate(0 -64.15)"/><path class="cls-4" d="M39.65,132.08c0,5.36-2.12,9.69-4.73,9.69s-4.74-4.33-4.74-9.69,2.12-9.7,4.74-9.7S39.65,126.71,39.65,132.08Z" transform="translate(0 -64.15)"/><path class="cls-4" d="M122,132.08c0,.27,0,.54,0,.82a9.48,9.48,0,0,1-6,8.49,7.59,7.59,0,0,1-2.37.38c-4.69,0-8.5-4.33-8.5-9.69s3.81-9.7,8.5-9.7a7.89,7.89,0,0,1,2.37.38,9.5,9.5,0,0,1,6,8.5C122,131.53,122,131.81,122,132.08Z" transform="translate(0 -64.15)"/></svg>