<svg id="Layer_1" data-name="Layer 1" xmlns="http://www.w3.org/2000/svg" viewBox="0 0 200 135.85"><defs><style>.cls-1{fill:#009245;}.cls-2{fill:#006837;}.cls-3{fill:#ff0;}</style></defs><title>GreenSlime</title><path class="cls-1" d="M147.26,104.52C139,83,98.73,68.6,52.21,65,38.27,69.33,35.52,90.27,24.7,110.13c-12.25,22.47-20.42,14.3-24.51,48S58.39,200,58.39,200h70.48s42.9-12.26,48-33.72S156.43,128.51,147.26,104.52ZM34.92,141.77c-2.62,0-4.74-4.33-4.74-9.69s2.12-9.7,4.74-9.7,4.73,4.33,4.73,9.7S37.53,141.77,34.92,141.77Zm82.35,0c-2.61,0-4.74-4.33-4.74-9.69s2.13-9.7,4.74-9.7,4.71,4.33,4.71,9.7S119.89,141.77,117.27,141.77Z" transform="translate(0 -64.15)"/><path class="cls-2" d="M199.33,166.28c-5.09,21.46-48,33.72-48,33.72H128.87s42.9-12.26,48-33.72-20.43-37.77-29.6-61.76C139,83,98.73,68.6,52.21,65a18.17,18.17,0,0,1,6.18-.84c53.11,1.22,102.13,16.34,111.33,40.36S204.45,144.85,199.33,166.28Z" transform="translate(0 -64.15)"/><ellipse class="cls-3" cx="34.92" cy="67.93" rx="4.74" ry="9.7"/><path class="cls-3" d="M122,132.08c0,5.36-3.75,9.69-8.43,9.69s-8.48-4.33-8.48-9.69,3.8-9.7,8.48-9.7S122,126.71,122,132.08Z" transform="translate(0 -64.15)"/></svg>