<svg id="Layer_1" data-name="Layer 1" xmlns="http://www.w3.org/2000/svg" viewBox="0 0 199.3 135.38"><defs><style>.cls-1{fill:#009245;}.cls-2{fill:#93278f;}.cls-3{fill:#662d91;}.cls-4{fill:#ff0;}</style></defs><title>PurpleSlime</title><path class="cls-1" d="M112.14,132.32c0-4.4,1.44-8.12,3.39-9.29a7.77,7.77,0,0,0-2.36-.38c-4.67,0-8.47,4.32-8.47,9.67s3.8,9.66,8.47,9.66a7.77,7.77,0,0,0,2.36-.38C113.58,140.43,112.14,136.71,112.14,132.32Z" transform="translate(0 -64.62)"/><path class="cls-2" d="M146.74,104.85C138.52,83.38,98.38,69.05,52,65.47c-13.9,4.32-16.64,25.19-27.41,45C12.4,132.83,4.26,124.69.19,158.26s58,41.74,58,41.74h70.23s42.75-12.21,47.82-33.6S155.89,128.76,146.74,104.85ZM34.79,142c-2.6,0-4.72-4.32-4.72-9.66s2.12-9.67,4.72-9.67,4.73,4.32,4.73,9.67S37.4,142,34.79,142Zm86.74-8.85c-.19,5-2.2,8.85-4.67,8.85a2.74,2.74,0,0,1-1.33-.38,7.77,7.77,0,0,1-2.36.38c-4.67,0-8.47-4.32-8.47-9.66s3.8-9.67,8.47-9.67a7.77,7.77,0,0,1,2.36.38,2.74,2.74,0,0,1,1.33-.38c2.47,0,4.48,3.88,4.67,8.85a7.4,7.4,0,0,1,0,.82A7.31,7.31,0,0,1,121.53,133.13Z" transform="translate(0 -64.62)"/><path class="cls-3" d="M198.63,166.4c-5.07,21.39-47.82,33.6-47.82,33.6H128.42s42.75-12.21,47.82-33.6-20.35-37.64-29.5-61.55C138.52,83.38,98.38,69.05,52,65.47a18.6,18.6,0,0,1,6.16-.84C111.11,65.85,160,80.91,169.13,104.85S203.73,145,198.63,166.4Z" transform="translate(0 -64.62)"/><ellipse class="cls-4" cx="34.79" cy="67.69" rx="4.72" ry="9.66"/><path class="cls-4" d="M121.56,132.32c0,4.39-2.53,8.08-6,9.28a7.77,7.77,0,0,1-2.36.38c-4.67,0-8.47-4.32-8.47-9.66s3.8-9.67,8.47-9.67a7.77,7.77,0,0,1,2.36.38C119,124.23,121.56,127.92,121.56,132.32Z" transform="translate(0 -64.62)"/></svg>