<svg id="Layer_1" data-name="Layer 1" xmlns="http://www.w3.org/2000/svg" viewBox="0 0 127.48 136.96"><defs><style>.cls-1{fill:#b48900;}.cls-1,.cls-2{stroke:#000;stroke-miterlimit:10;}.cls-2{fill:#f4e300;}</style></defs><title>Coin</title><path class="cls-1" d="M127.08,28l-13.18.1a48.55,48.55,0,0,0-15.65-5,47.78,47.78,0,0,1,6.69-.48A48.38,48.38,0,0,1,127.08,28Z" transform="translate(-34.51 -22.1)"/><path class="cls-1" d="M135,33l-13.22.09h0a53.14,53.14,0,0,0-7.83-5l13.18-.1A54.21,54.21,0,0,1,135,33Z" transform="translate(-34.51 -22.1)"/><path class="cls-1" d="M140.72,37.94,127.45,38a59.59,59.59,0,0,0-5.71-5L135,33A58.6,58.6,0,0,1,140.72,37.94Z" transform="translate(-34.51 -22.1)"/><path class="cls-1" d="M145.25,42.92,132,43a59.91,59.91,0,0,0-4.53-5l13.27-.09A59.77,59.77,0,0,1,145.25,42.92Z" transform="translate(-34.51 -22.1)"/><path class="cls-1" d="M149,47.9,135.67,48q-1.74-2.61-3.69-5l13.27-.1C146.55,44.51,147.79,46.17,149,47.9Z" transform="translate(-34.51 -22.1)"/><path class="cls-1" d="M152,52.9l-13.3.09q-1.43-2.58-3-5L149,47.9C150,49.5,151.06,51.18,152,52.9Z" transform="translate(-34.51 -22.1)"/><path class="cls-1" d="M154.53,57.89l-13.3.09q-1.18-2.56-2.52-5L152,52.9C152.91,54.51,153.75,56.18,154.53,57.89Z" transform="translate(-34.51 -22.1)"/><path class="cls-1" d="M156.59,62.9,143.27,63c-.62-1.71-1.31-3.38-2-5l13.3-.09C155.28,59.51,156,61.19,156.59,62.9Z" transform="translate(-34.51 -22.1)"/><path class="cls-1" d="M158.25,67.89l-13.31.1c-.5-1.7-1.05-3.37-1.67-5l13.32-.09C157.21,64.52,157.77,66.2,158.25,67.89Z" transform="translate(-34.51 -22.1)"/><path class="cls-1" d="M159.56,72.89l-13.33.1c-.39-1.7-.81-3.36-1.29-5l13.31-.1C158.75,69.53,159.19,71.19,159.56,72.89Z" transform="translate(-34.51 -22.1)"/><path class="cls-1" d="M160.5,77.89,147.17,78c-.26-1.7-.58-3.37-.94-5l13.33-.1C159.93,74.53,160.24,76.19,160.5,77.89Z" transform="translate(-34.51 -22.1)"/><path class="cls-1" d="M161.13,82.91l-13.35.1c-.15-1.69-.35-3.36-.61-5l13.33-.11C160.77,79.54,161,81.21,161.13,82.91Z" transform="translate(-34.51 -22.1)"/><path class="cls-1" d="M161.44,87.92,148.1,88c0-1.69-.16-3.36-.32-5l13.35-.1C161.3,84.56,161.39,86.24,161.44,87.92Z" transform="translate(-34.51 -22.1)"/><path class="cls-1" d="M161.49,90.59c0,.79,0,1.56,0,2.34L148.1,93c0-.82,0-1.63,0-2.44s0-1.72,0-2.57l13.34-.1C161.48,88.81,161.49,89.69,161.49,90.59Z" transform="translate(-34.51 -22.1)"/><path class="cls-1" d="M161.46,92.93c0,1.69-.14,3.36-.3,5l-13.37.1c.16-1.66.26-3.34.31-5Z" transform="translate(-34.51 -22.1)"/><path class="cls-1" d="M161.16,98c-.15,1.69-.35,3.36-.61,5l-13.37.11c.26-1.65.46-3.32.61-5Z" transform="translate(-34.51 -22.1)"/><path class="cls-1" d="M160.55,103c-.25,1.7-.56,3.38-.93,5l-13.37.09q.54-2.46.93-5Z" transform="translate(-34.51 -22.1)"/><path class="cls-1" d="M159.62,108c-.37,1.71-.79,3.38-1.28,5L145,113.1c.49-1.64.91-3.31,1.29-5Z" transform="translate(-34.51 -22.1)"/><path class="cls-1" d="M158.34,113c-.5,1.71-1,3.39-1.65,5l-13.39.1c.61-1.64,1.17-3.33,1.66-5Z" transform="translate(-34.51 -22.1)"/><path class="cls-1" d="M156.69,118c-.63,1.72-1.31,3.38-2.06,5l-13.39.1c.74-1.64,1.43-3.3,2.06-5Z" transform="translate(-34.51 -22.1)"/><path class="cls-1" d="M154.63,123.06c-.78,1.72-1.61,3.41-2.52,5l-13.42.09q1.38-2.44,2.55-5Z" transform="translate(-34.51 -22.1)"/><path class="cls-1" d="M152.11,128.1c-1,1.73-2,3.41-3.08,5l-13.41.11c1.09-1.63,2.12-3.3,3.07-5.05Z" transform="translate(-34.51 -22.1)"/><path class="cls-1" d="M149,133.13a58,58,0,0,1-3.71,5.05l-13.44.09a62.44,62.44,0,0,0,3.74-5Z" transform="translate(-34.51 -22.1)"/><path class="cls-1" d="M145.32,138.18a63,63,0,0,1-4.58,5l-13.46.09a59.8,59.8,0,0,0,4.6-5Z" transform="translate(-34.51 -22.1)"/><path class="cls-1" d="M140.74,143.22a56.06,56.06,0,0,1-5.89,5.06l-13.49.1a56.47,56.47,0,0,0,5.92-5.07Z" transform="translate(-34.51 -22.1)"/><path class="cls-1" d="M134.85,148.28a53.85,53.85,0,0,1-8.14,5.07h0l-13.55.1a53.59,53.59,0,0,0,8.23-5.07Z" transform="translate(-34.51 -22.1)"/><path class="cls-1" d="M126.68,153.35a48.19,48.19,0,0,1-21.74,5.22,49.35,49.35,0,0,1-6.69-.47,48.66,48.66,0,0,0,14.88-4.65Z" transform="translate(-34.51 -22.1)"/><path class="cls-2" d="M148.14,90.59c0,.81,0,1.62,0,2.44,0,1.68-.15,3.36-.31,5s-.35,3.37-.61,5-.57,3.37-.93,5-.8,3.38-1.29,5-1.05,3.4-1.66,5-1.32,3.38-2.06,5-1.63,3.4-2.55,5-2,3.42-3.07,5.05a62.44,62.44,0,0,1-3.74,5,59.8,59.8,0,0,1-4.6,5,56.47,56.47,0,0,1-5.92,5.07,53.59,53.59,0,0,1-8.23,5.07,48.66,48.66,0,0,1-14.88,4.65,49.2,49.2,0,0,1-6.68.47c-31.24,0-56.56-30.44-56.56-68s25.32-68,56.56-68a47.64,47.64,0,0,1,6.68.48,48.55,48.55,0,0,1,15.65,5,53.14,53.14,0,0,1,7.83,5h0A60.95,60.95,0,0,1,132,43q2,2.38,3.69,5,1.62,2.4,3,5,1.33,2.43,2.52,5c.73,1.63,1.42,3.3,2,5s1.17,3.3,1.67,5,.9,3.3,1.29,5,.68,3.31.94,5,.46,3.32.61,5,.27,3.32.32,5C148.13,88.87,148.14,89.73,148.14,90.59Z" transform="translate(-34.51 -22.1)"/></svg>