<svg xmlns="http://www.w3.org/2000/svg" viewBox="0 0 200 188.17"><defs><style>.cls-1{fill:aqua;}.cls-2{fill:#0071bc;}.cls-3{fill:#ff0;}.cls-4{fill:#c1272d;}.cls-5{fill:#fcee21;}.cls-6{fill:none;}</style></defs><title>KingSlime</title><g id="Layer_1" data-name="Layer 1"><path class="cls-1" d="M147.26,104.52C139,83,98.73,68.6,52.21,65,38.27,69.33,35.52,90.27,24.7,110.13c-12.25,22.47-20.42,14.3-24.51,48S58.39,200,58.39,200h70.48s42.9-12.26,48-33.72S156.43,128.51,147.26,104.52ZM34.92,141.77c-2.62,0-4.74-4.33-4.74-9.69s2.12-9.7,4.74-9.7,4.73,4.33,4.73,9.7S37.53,141.77,34.92,141.77Zm82.35,0c-2.61,0-4.74-4.33-4.74-9.69s2.13-9.7,4.74-9.7,4.71,4.33,4.71,9.7S119.89,141.77,117.27,141.77Z" transform="translate(0 -11.83)"/><path class="cls-2" d="M199.33,166.28c-5.09,21.46-48,33.72-48,33.72H128.87s42.9-12.26,48-33.72-20.43-37.77-29.6-61.76C139,83,98.73,68.6,52.21,65a18.17,18.17,0,0,1,6.18-.84c53.11,1.22,102.13,16.34,111.33,40.36S204.45,144.85,199.33,166.28Z" transform="translate(0 -11.83)"/><ellipse class="cls-3" cx="34.92" cy="120.25" rx="4.74" ry="9.7"/><path class="cls-3" d="M122,132.08c0,5.36-3.75,9.69-8.43,9.69s-8.48-4.33-8.48-9.69,3.8-9.7,8.48-9.7S122,126.71,122,132.08Z" transform="translate(0 -11.83)"/></g><g id="Layer_2" data-name="Layer 2"><ellipse class="cls-3" cx="68.11" cy="3.74" rx="4.94" ry="3.74"/><path class="cls-4" d="M98.86,45.62a28.36,28.36,0,0,1-7.21,18.84,30.79,30.79,0,0,1-8.93,6.92A61.52,61.52,0,0,0,69,69.58l-1.76,0h-.43a63.8,63.8,0,0,0-13.75,1.49,30.39,30.39,0,0,1-9.15-7.56,28.18,28.18,0,0,1-4.81-27.17A30.34,30.34,0,0,1,63.42,16.75a31.36,31.36,0,0,1,4.78-.35,33.46,33.46,0,0,1,4.61.32A30.39,30.39,0,0,1,97.2,36.11,28.13,28.13,0,0,1,98.86,45.62Z" transform="translate(0 -11.83)"/><path class="cls-5" d="M67,44.89l-.21,24.68a63.8,63.8,0,0,0-13.75,1.49,37.89,37.89,0,0,0-9.15,3.25V44.89Z" transform="translate(0 -11.83)"/><path class="cls-5" d="M67.25,19.76,67,44.89l-.21,24.68a63.8,63.8,0,0,0-13.75,1.49,37.89,37.89,0,0,0-9.15,3.25v.55c0-.17-.08-.32-.12-.48C36.22,44,24.17,37.55,24.17,36.15c0-.88,7.49-2,14.94.18a20.12,20.12,0,0,1,11.75,8.56Z" transform="translate(0 -11.83)"/><polyline class="cls-6" points="67.25 7.93 67.03 33.07 66.82 57.74"/><line class="cls-6" x1="72.24" y1="71.17" x2="72.24" y2="71.13"/><path class="cls-5" d="M91.65,44.89v30h-.09a33.73,33.73,0,0,0-8.84-3.48A61.52,61.52,0,0,0,69,69.58l-.22-24.69Z" transform="translate(0 -11.83)"/><path class="cls-5" d="M111.19,36.15c0,1.41-12,8-19.54,38.71h-.09a33.73,33.73,0,0,0-8.84-3.48A61.52,61.52,0,0,0,69,69.58l-.22-24.69-.22-25.13L84.79,44.89c2.95-4.9,7.72-7.51,12.41-8.78C104.3,34.18,111.19,35.3,111.19,36.15Z" transform="translate(0 -11.83)"/><polyline class="cls-6" points="68.58 7.93 68.79 33.07 69.01 57.76"/><line class="cls-6" x1="74.97" y1="71.17" x2="74.97" y2="71.16"/><path class="cls-3" d="M44.79,82.34V83l-.15-.58Z" transform="translate(0 -11.83)"/></g></svg>