<svg id="Layer_1" data-name="Layer 1" xmlns="http://www.w3.org/2000/svg" viewBox="0 0 200 200"><defs><style>.cls-1{fill:red;}.cls-2{fill:#fff;}</style></defs><title>PoisonedIcon</title><path class="cls-1" d="M0,0V200H200V0ZM169.39,44.72a11.73,11.73,0,0,1-9.73-5.13L143.94,55.32a60.32,60.32,0,0,1-5.68,82.81l18.12,18.14a11.81,11.81,0,1,1,8.17,20.35,11.82,11.82,0,1,1-18.5-9.73l-13.6-13.6v20.52H119.14v-11h-7.3v11H100.71v-11H93.37v11H84v-11H76.63v11H62.38v-19L48.69,168.46a11.82,11.82,0,1,1-20.37,8.17,11.82,11.82,0,1,1,9.74-18.51l19.28-19.28a60.31,60.31,0,0,1-6.69-83.23L36.48,41.45A11.81,11.81,0,1,1,28.31,21.1a11.83,11.83,0,1,1,18.52,9.72L61.36,45.36a60.31,60.31,0,0,1,71.79-.23L149,29.25a11.82,11.82,0,1,1,20.36-8.16,11.82,11.82,0,1,1,0,23.63Z"/><path class="cls-2" d="M170.21,44.1a12,12,0,1,0,0-23.91,12,12,0,1,0-20.6,8.26L133.55,44.51a61,61,0,0,0-72.62.23L46.23,30A12,12,0,1,0,27.5,20.2a12,12,0,1,0,8.26,20.59L50.1,55.11a61,61,0,0,0,6.76,84.19l-19.5,19.51a12,12,0,1,0-9.85,18.72,12,12,0,1,0,20.6-8.26L62,155.42v19.26H76.38V163.54H83.8v11.14h9.51V163.54h7.42v11.14H112V163.54h7.39v11.14h13.46V153.92l13.76,13.76a11.95,11.95,0,1,0,18.71,9.84,12,12,0,1,0-8.26-20.59l-18.33-18.34a61,61,0,0,0,5.74-83.77l15.9-15.91A11.9,11.9,0,0,0,170.21,44.1ZM76.87,140.49c-1,1.87-2.19,3.1-3.46,3.47a3,3,0,0,1-.84.12c-3.22,0-6-5.46-7.21-13.27a56.25,56.25,0,0,1-.65-8.79c0-12.19,3.52-22.06,7.86-22.06s7.77,9.54,7.87,21.44c0,.21,0,.41,0,.62C80.46,129.75,79,136.55,76.87,140.49Zm52.93-10.81c-1.06,8-3.7,13.77-6.86,14.35a3.05,3.05,0,0,1-.52.05c-2.1,0-4-2.27-5.39-6A47,47,0,0,1,114.54,122c0-1,0-1.92.07-2.85.49-10.84,3.8-19.21,7.81-19.21,4.34,0,7.87,9.87,7.87,22.06A59.68,59.68,0,0,1,129.8,129.68Z"/><path class="cls-1" d="M131.43,123.16a59.68,59.68,0,0,1-.49,7.66c-1.06,8-3.7,13.77-6.86,14.35a3.05,3.05,0,0,1-.52.05c-2.1,0-4-2.27-5.39-6a47,47,0,0,1-2.49-16.09c0-1,0-1.92.07-2.85.49-10.84,3.8-19.21,7.81-19.21C127.9,101.1,131.43,111,131.43,123.16Z"/><path class="cls-1" d="M81.6,123.16c0,7.73-1.42,14.53-3.59,18.47-1,1.87-2.19,3.1-3.46,3.47a3,3,0,0,1-.84.12c-3.22,0-6-5.46-7.21-13.27a56.25,56.25,0,0,1-.65-8.79c0-12.19,3.52-22.06,7.86-22.06s7.77,9.54,7.87,21.44C81.6,122.75,81.6,123,81.6,123.16Z"/></svg>