<svg xmlns="http://www.w3.org/2000/svg" viewBox="0 0 200 200"><defs><style>.cls-1{fill:none;}.cls-2{fill:#fff;stroke:#000;stroke-miterlimit:10;stroke-width:4px;}</style></defs><title>Skull</title><g id="Layer_2" data-name="Layer 2"><rect class="cls-1" width="200" height="200"/></g><g id="Layer_1" data-name="Layer 1"><path class="cls-2" d="M157.64,22.27H42.36A26.48,26.48,0,0,0,15.88,48.76v64.92a26.47,26.47,0,0,0,26.48,26.48H65v37.57H77.82V160.94H92.2v16.79h18.4V160.94H125v16.79h10V140.16h22.67a26.47,26.47,0,0,0,26.48-26.48V48.76A26.48,26.48,0,0,0,157.64,22.27ZM53.24,124.18c-14.9,0-27-15.83-27-35.36s12.07-35.38,27-35.38,27,15.84,27,35.38S68.14,124.18,53.24,124.18Zm93.51,0c-14.91,0-27-15.83-27-35.36s12.07-35.38,27-35.38,27,15.84,27,35.38S161.63,124.18,146.75,124.18Z"/></g></svg>