<svg xmlns="http://www.w3.org/2000/svg" viewBox="0 0 200 200"><defs><style>.cls-1{fill:#009245;}.cls-2{fill:#fff;stroke:#009245;stroke-miterlimit:10;}</style></defs><title>StrengthIcon</title><g id="Layer_1" data-name="Layer 1"><rect class="cls-1" width="200" height="200"/></g><g id="Layer_2" data-name="Layer 2"><rect class="cls-2" x="39.92" y="134.78" width="68.62" height="5.79"/><rect class="cls-2" x="50.11" y="143.32" width="48.25" height="3.98"/><rect class="cls-2" x="64.45" y="150.04" width="19.58" height="4.42"/><rect class="cls-2" x="64.45" y="157.77" width="19.58" height="4.14"/><rect class="cls-2" x="64.45" y="165.22" width="19.58" height="4.15"/><rect class="cls-2" x="64.45" y="172.69" width="19.58" height="4.14"/><rect class="cls-2" x="64.45" y="180.14" width="19.58" height="6.35"/><polygon class="cls-2" points="95.62 40.75 95.62 132.04 52.86 132.04 52.86 40.75 74.25 13.51 95.62 40.75"/><line class="cls-2" x1="74.24" y1="132.04" x2="74.25" y2="13.51"/><polygon class="cls-2" points="179.42 88.68 179.42 121.3 164.51 121.3 164.51 136.21 131.89 136.21 131.89 121.3 116.98 121.3 116.98 88.68 131.89 88.68 131.89 73.77 164.51 73.77 164.51 88.68 179.42 88.68"/></g></svg>