<svg id="Layer_1" data-name="Layer 1" xmlns="http://www.w3.org/2000/svg" viewBox="0 0 200 200"><defs><style>.cls-1{fill:red;}.cls-2,.cls-3{fill:none;stroke-miterlimit:10;}.cls-2{stroke:#fff;stroke-width:13px;}.cls-3{stroke:#000;stroke-width:2px;}</style></defs><title>StunnedIcon</title><rect class="cls-1" width="200" height="200"/><path class="cls-2" d="M36.25,148.08c-6.35-49.54,7.43-108.29,57-114.64A72.34,72.34,0,0,1,174.17,96a57.87,57.87,0,0,1-50,64.76,46.29,46.29,0,0,1-51.8-40,37,37,0,0,1,32-41.45,29.63,29.63,0,0,1,33.16,25.62A23.71,23.71,0,0,1,117,131.42,19,19,0,0,1,95.78,115,15.18,15.18,0,0,1,108.9,98c6.65-.85,10,6.67,10.9,13.32"/><path class="cls-3" d="M91.61,90.67"/><path class="cls-3" d="M138,137.07"/></svg>