<svg id="Layer_1" data-name="Layer 1" xmlns="http://www.w3.org/2000/svg" viewBox="0 0 200 23.09"><defs><style>.cls-1{fill:#c1272d;}.cls-2{fill:#fff;}.cls-3{fill:red;}</style></defs><title>Targeted</title><path class="cls-1" d="M100,.86C44.79.86,0,6,0,12.41S44.79,24,100,24s100-5.17,100-11.55S155.23.86,100,.86ZM100.59,22c-45.75,0-82.83-4.28-82.83-9.56s37.08-9.56,82.83-9.56,82.81,4.28,82.81,9.56S146.32,22,100.59,22Z" transform="translate(0 -0.86)"/><path class="cls-2" d="M100.59,2.85c-45.75,0-82.83,4.28-82.83,9.56S54.84,22,100.59,22s82.81-4.28,82.81-9.56S146.32,2.85,100.59,2.85ZM100,21c-41.3,0-74.78-3.86-74.78-8.63S58.71,3.78,100,3.78s74.76,3.86,74.76,8.63S141.29,21,100,21Z" transform="translate(0 -0.86)"/><path class="cls-3" d="M100,3.78c-41.3,0-74.78,3.86-74.78,8.63S58.71,21,100,21s74.76-3.86,74.76-8.63S141.29,3.78,100,3.78Zm0,15.57c-33.19,0-60.08-3.11-60.08-6.94S66.82,5.47,100,5.47s60.06,3.11,60.06,6.94S133.18,19.35,100,19.35Z" transform="translate(0 -0.86)"/><path class="cls-2" d="M100,5.47c-33.19,0-60.08,3.11-60.08,6.94S66.82,19.35,100,19.35s60.06-3.11,60.06-6.94S133.18,5.47,100,5.47ZM96.47,17.08C74.11,17.08,56,15,56,12.41S74.11,7.74,96.47,7.74s40.47,2.09,40.47,4.67S118.83,17.08,96.47,17.08Z" transform="translate(0 -0.86)"/><path class="cls-3" d="M136.94,12.41c0,2.58-18.11,4.67-40.47,4.67S56,15,56,12.41,74.11,7.74,96.47,7.74,136.94,9.83,136.94,12.41Z" transform="translate(0 -0.86)"/></svg>