<svg id="Layer_1" data-name="Layer 1" xmlns="http://www.w3.org/2000/svg" viewBox="0 0 130.9 72.09"><defs><style>.cls-1{fill:#b3b3b3;}.cls-1,.cls-2,.cls-3,.cls-4,.cls-5{stroke:#000;stroke-miterlimit:10;}.cls-2{fill:#4d4d4d;}.cls-3{fill:#fff;}.cls-4{fill:#74551d;}.cls-5{fill:#743c1d;}.cls-6{font-size:17.89px;}.cls-6,.cls-7{fill:#2e3192;}.cls-6,.cls-7,.cls-8{font-family:Mono45Headline-Regular, Mono45-Headline;}.cls-7{font-size:18px;}.cls-8{font-size:24px;fill:#c1272d;}</style></defs><title>TBFLogo</title><path class="cls-1" d="M66.75,142.79a17.71,17.71,0,0,1-12.53-16.93V90.46L66,90.39Z" transform="translate(-16.85 -71.97)"/><path class="cls-2" d="M71.92,90.36v53.2a17.67,17.67,0,0,1-5.17-.77L66,90.39Z" transform="translate(-16.85 -71.97)"/><polygon class="cls-3" points="55.07 18.39 49.13 18.42 37.37 18.49 0.5 18.49 0.5 18.39 55.07 18.39"/><path class="cls-4" d="M71.92,72.47V85.11H18.16A18,18,0,0,1,35.35,72.47Z" transform="translate(-16.85 -71.97)"/><text x="-16.85" y="-71.97"/><rect class="cls-5" x="0.5" y="13.14" width="54.57" height="5.25"/><text class="cls-6" transform="translate(57.95 21.02) scale(1.01 1)">URN</text><text class="cls-7" transform="translate(57.95 35.6)">BASED</text><text class="cls-8" transform="translate(56.98 54.02)">FIGHTER</text></svg>