<svg xmlns="http://www.w3.org/2000/svg" viewBox="0 0 200 200"><defs><style>.cls-1,.cls-3{fill:red;}.cls-2{fill:#fff;}.cls-2,.cls-3{stroke:red;stroke-miterlimit:10;}</style></defs><title>VulnerableIcon</title><g id="Layer_1" data-name="Layer 1"><rect class="cls-1" width="200" height="200"/></g><g id="Layer_2" data-name="Layer 2"><path class="cls-2" d="M110,60.66v5.12H24.63V60.7c18.53,0,33.54-12.29,33.54-27.44h6.34c.33,6.56,1.84,11.51,3.65,11.51s3.33-5,3.65-11.51h6.35C78.16,47.94,92.26,59.94,110,60.66Z" transform="translate(0 0)"/><rect class="cls-2" x="24.63" y="74.46" width="85.37" height="38.75"/><rect class="cls-3" x="24.63" y="65.78" width="85.37" height="8.67"/><rect class="cls-3" x="24.63" y="113.21" width="85.37" height="7.91"/><polyline class="cls-2" points="24.63 121.12 24.63 146.8 45.55 167.61 91.11 167.61 110 149.05 110 121.12"/><rect class="cls-2" x="121.57" y="83.69" width="62.44" height="32.62"/></g></svg>